<?xml version="1.0" standalone="yes"?>
<svg xmlns="http://www.w3.org/2000/svg" width="958" height="303">
<path style="fill:#010101; stroke:none;" d="M0 0L0 149L1 149C32.0435 110.042 72.7675 76.2347 108 41C120.867 28.1326 136.545 14.8417 147 0L0 0z"/>
<path style="fill:#ff0101; stroke:none;" d="M152 303L152 228L806 228L806 303C818.642 302.047 831.966 281.891 840.421 273.155C868.24 244.412 896.713 216.287 925 188L949 164C952.201 160.797 957.526 156.948 957.743 152C957.951 147.257 953.526 144.023 950.579 140.95C942.497 132.524 934.256 124.256 926 116C897.748 87.7483 868.606 60.1399 841.271 31C832.819 21.9898 818.758 0.9617 806 0L806 75L441 77L152 75L152 0C139.123 0.970673 126.223 21.4568 117.575 30.2855C89.327 59.1242 60.5451 87.4549 32 116C23.7231 124.277 15.4314 132.543 7.4213 141.075C4.60883 144.071 0.0549915 147.447 0.256944 152.004C0.476107 156.949 5.79955 160.798 9 164L33 188C61.2635 216.263 89.9027 244.213 117.579 273.05C126.001 281.826 139.326 302.045 152 303z"/>
<path style="fill:#010101; stroke:none;" d="M152 0L152 75L440 77L806 75L806 0L152 0M811 0L838.729 29.1659L918 109L957 149L958 149L958 0L811 0M0 155L0 303L147 303C139.695 292.629 129.004 283.921 120.13 274.845C102.502 256.814 84.8345 238.835 67 221C45.6568 199.657 24.6531 172.366 0 155M957 155L856.729 255.718L811 303L958 303L958 199C958 186.532 961.807 166.456 957 155M152 228L152 303L806 303L806 228L152 228z"/>
</svg>
